<?xml version="1.0" standalone="no"?>
<!DOCTYPE svg PUBLIC "-//W3C//DTD SVG 20010904//EN"
 "http://www.w3.org/TR/2001/REC-SVG-20010904/DTD/svg10.dtd">
<svg version="1.0" xmlns="http://www.w3.org/2000/svg"
 width="512.000000pt" height="512.000000pt" viewBox="0 0 512.000000 512.000000"
 preserveAspectRatio="xMidYMid meet">

<g transform="translate(0.000000,512.000000) scale(0.100000,-0.100000)"
fill="#000000" stroke="none">
<path d="M2716 3788 c-21 -19 -99 -236 -423 -1183 -239 -699 -397 -1175 -397
-1199 0 -31 6 -44 32 -67 l32 -29 210 0 c202 0 210 1 234 23 38 32 830 2335
822 2387 -3 22 -17 45 -36 63 l-30 27 -210 0 c-202 0 -210 -1 -234 -22z"/>
<path d="M1225 3686 c-16 -8 -270 -254 -562 -548 -487 -487 -533 -536 -533
-566 0 -18 6 -45 14 -60 23 -43 1057 -1070 1090 -1082 52 -19 83 2 251 170
159 159 160 161 160 205 l0 45 -355 355 -355 355 355 355 355 355 0 45 c0 44
-1 46 -155 201 -134 135 -196 185 -227 184 -4 -1 -21 -7 -38 -14z"/>
<path d="M3815 3686 c-16 -8 -100 -84 -185 -170 -154 -155 -155 -157 -155
-201 l0 -45 355 -355 355 -355 -355 -355 -355 -355 0 -45 c0 -44 1 -46 160
-205 168 -168 199 -189 251 -170 35 13 66 43 645 631 444 452 459 468 459 505
0 38 -15 53 -532 572 -472 473 -569 563 -605 562 -4 -1 -21 -7 -38 -14z"/>
</g>
</svg>
